<?xml version="1.0" encoding="utf-8"?>
<!-- Generator: Adobe Illustrator 19.0.0, SVG Export Plug-In . SVG Version: 6.00 Build 0)  -->
<svg version="1.1" id="Layer_1" xmlns="http://www.w3.org/2000/svg" xmlns:xlink="http://www.w3.org/1999/xlink" x="0px" y="0px"
	 viewBox="-271 387 68 19" style="enable-background:new -271 387 68 19;" xml:space="preserve">
<style type="text/css">
	.st0{fill:#FFFFFF;}
</style>
<g>
	<path class="st0" d="M-208.7,401.7c0,1.4,0,2.8,0,4.3c-7.4,0-14.9,0-22.4,0c0-4.7,0-9.3,0-13.9c-1.5,0-3,0-4.5,0
		c0,4.6,0,9.2,0,13.8c-2.1,0-4.2,0-6.4,0c0-4.6,0-9.2,0-13.8c-1,0-2,0-3,0c0,4.6,0,9.2,0,13.9c-2.3,0-4.5,0-6.7,0
		c0-4.6,0-9.2,0-13.9c-1.9,0-3.8,0-5.7,0c0-1.7,0-3.4,0-5.1c13.6,0,27.2,0,40.8,0c0.7,0.6,1.5,1.1,2.2,1.8c1.3,1.4,1.6,3.2,0.5,4.9
		c-0.5,0.7-1.1,1.3-1.7,2c2.3,1.3,3.1,3.4,3.3,6C-211.1,401.7-209.9,401.7-208.7,401.7z M-224.7,394.1c1.3,0,2.6,0,3.9,0
		c0.8,0,1.4-0.6,1.4-1.4c0-0.6-0.3-1.1-0.7-1.5c-0.1-0.1-0.4-0.2-0.5-0.2c-1.2,0-2.4,0-3.6,0c-0.1,0-0.2,0-0.4,0
		C-224.7,392-224.7,393-224.7,394.1z M-224.7,401.2c1.4,0,2.8,0,4.2,0c0.1,0,0.2,0,0.3-0.1c0.8-0.5,1-1.3,0.6-2.1
		c-0.3-0.6-0.7-1-1.5-0.9c-1.1,0.1-2.1,0-3.2,0c-0.1,0-0.3,0-0.4,0C-224.7,399.1-224.7,400.1-224.7,401.2z"/>
</g>
</svg>
